<svg width="512" height="512" viewBox="0 0 512 512" fill="none" xmlns="http://www.w3.org/2000/svg">
<path fill-rule="evenodd" clip-rule="evenodd" d="M338.3 1.80097C324.148 6.85697 316 18.106 316 32.588C316 41.707 319.082 49.212 325.435 55.565C332.421 62.552 339.729 65.305 350 64.822C362.731 64.222 372.427 57.721 377.851 46.148C381.691 37.956 381.641 26.823 377.73 18.858C374.469 12.218 367.718 5.64797 361.192 2.76097C354.65 -0.133029 344.861 -0.543029 338.3 1.80097ZM342 16.121C338.806 17.391 334.225 21.728 332.411 25.2C328.652 32.396 332.175 43.553 339.52 47.713C355.682 56.867 372.991 38.323 362.718 22.862C358.594 16.655 348.729 13.446 342 16.121ZM171 27.719C167.713 28.906 166 31.384 166 34.952C166 37.884 166.781 39.356 170.005 42.505L174.009 46.415L170.005 50.495C165.176 55.415 164.436 60.791 168.223 63.443C172.009 66.096 175.67 65.38 180.272 61.088L184.466 57.175L188.711 61.088C193.363 65.376 197.004 66.087 200.777 63.443C202.401 62.306 203 60.878 203 58.146C203 55.099 202.257 53.681 198.995 50.495L194.991 46.585L198.995 42.505C202.153 39.287 203 37.672 203 34.867C203 27.147 195.437 25.214 189.171 31.333C187.105 33.35 185.004 35 184.5 35C183.996 35 181.99 33.474 180.042 31.609C176.31 28.035 173.488 26.821 171 27.719ZM130.718 74.092C118.354 77.003 108.809 86.787 105.41 100.033C102.723 110.506 105.625 121.948 113.139 130.506C114.859 132.465 116.094 134.207 115.883 134.379C115.672 134.55 100.2 142.915 81.5 152.966C39.212 175.697 40.626 174.793 38.455 180.479C35.494 188.233 36.431 189.785 61.489 218.61L83.975 244.475L60.488 252.359C41.319 258.793 36.451 260.804 34.012 263.299C29.216 268.204 28.758 276.731 33.016 281.84C34.089 283.127 47.236 290.848 62.233 298.998L89.5 313.817L89.774 329.775C90.023 344.236 90.235 345.903 92.037 347.534C94.76 349.998 99.619 349.825 102.275 347.169C104.159 345.285 104.507 343.548 104.969 333.719L105.5 322.432L131 336.316C175.172 360.366 182.505 364 186.874 364C189.208 364 202.38 360.117 219.105 354.5C234.661 349.275 247.526 345 247.694 345C247.862 345 248 378.3 248 419C248 459.7 247.8 493 247.555 493C247.018 493 106.715 416.992 106 416.314C105.725 416.054 105.275 406.836 105 395.83C104.512 376.293 104.444 375.775 102.139 373.91C99.191 371.524 94.891 371.458 92.055 373.755C89.933 375.473 89.894 375.965 90.194 397.672L90.5 419.834L93.527 424.137C96.319 428.108 102.459 431.646 173.027 469.942L249.5 511.444L256 511.456L262.5 511.468L337 471.113C377.975 448.918 412.916 429.7 414.648 428.406C416.379 427.113 418.741 424.1 419.898 421.711C421.951 417.47 422 416.162 422 365.761V314.154L448.25 299.954C462.688 292.144 475.958 284.375 477.74 282.691C483.255 277.476 483.366 268.8 477.988 263.299C475.549 260.804 470.681 258.793 451.512 252.359L428.025 244.475L450.511 218.61C475.527 189.832 476.503 188.223 473.571 180.546C472.621 178.059 470.642 175.194 469.172 174.177C462.29 169.418 409.927 142 407.72 142C401.604 142 398.29 149.751 402.583 154.015C403.637 155.062 416.65 162.513 431.5 170.573C446.35 178.632 458.65 185.363 458.833 185.53C459.017 185.697 448.918 197.586 436.391 211.95C420.056 230.68 413.174 237.901 412.057 237.483C411.201 237.162 378.425 219.546 339.222 198.337C276.55 164.429 268.098 159.583 269.222 158.196C269.925 157.329 275.83 150.517 282.345 143.06L294.19 129.5L302.662 129.854C310.54 130.184 311.59 129.984 317.65 127.001C322.083 124.818 325.019 122.559 326.833 119.934C328.3 117.812 329.805 116.059 330.179 116.038C330.552 116.017 340.372 121.175 352 127.5C363.628 133.825 374.256 139 375.617 139C378.33 139 383 134.959 383 132.611C383 127.618 381.122 126.201 357.605 113.462L334.084 100.72L332.99 95.454C331.013 85.927 323.379 77.321 314.101 74.159C312.231 73.521 307.707 73 304.047 73C282.906 73 269.411 95.921 279.315 115.009C281.669 119.546 281.86 120.51 280.684 121.892C268.894 135.741 256.587 149.5 255.99 149.5C255.572 149.5 244.425 137.106 231.22 121.958C218.015 106.811 206.017 93.873 204.558 93.208C199.135 90.737 194.502 91.696 183.823 97.5C178.257 100.525 173.58 103 173.431 103C173.281 103 172.843 101.537 172.456 99.75C168.596 81.896 148.926 69.804 130.718 74.092ZM389.655 78.829C386.651 82.148 387.543 86.958 392.005 91.505L396.009 95.585L392.005 99.495C388.781 102.644 388 104.116 388 107.048C388 111.564 390.467 114 395.041 114C397.643 114 399.367 113.075 402.505 109.995L406.585 105.991L410.495 109.995C413.644 113.219 415.116 114 418.048 114C422.589 114 425 111.528 425 106.874C425 104.145 424.147 102.573 420.995 99.495L416.991 95.585L420.995 91.505C424.153 88.287 425 86.672 425 83.867C425 79.441 422.498 77 417.959 77C415.357 77 413.633 77.925 410.495 81.005L406.415 85.009L402.505 81.005C399.356 77.781 397.884 77 394.952 77C392.694 77 390.681 77.695 389.655 78.829ZM130.446 90.483C119.136 96.161 116.017 109.761 123.709 119.859C131.399 129.954 148.211 129.044 155.113 118.16C160.246 110.067 158.79 99.535 151.676 93.289C145.217 87.617 138.044 86.669 130.446 90.483ZM297.299 89.96C288.72 95.19 289.074 108.884 297.906 113.451C299.553 114.303 302.932 115 305.416 115C309.036 115 310.628 114.387 313.453 111.907C320.371 105.833 320.351 97.15 313.404 91.05C310.58 88.57 309.049 88.001 305.215 88.004C302.304 88.006 299.275 88.754 297.299 89.96ZM184.185 114.395C172.509 120.819 170.448 122.346 167.45 126.798C161.15 136.153 152.304 141.104 140.649 141.8L132.798 142.269L93.149 163.743C71.342 175.554 53.345 185.361 53.155 185.537C52.692 185.966 98.152 238 98.99 238C99.727 238 242.079 161.106 243.23 160.086C243.871 159.518 199.72 107.839 198.121 107.285C197.779 107.166 191.508 110.366 184.185 114.395ZM184.25 209.191C145.612 230.153 114 247.595 114 247.951C114 248.569 177.278 283.203 179.453 283.776C180.144 283.958 180.382 280.994 180.152 275.063C179.298 253.002 187.651 233.121 204.458 217.212C213.159 208.975 224.339 202.442 234.15 199.862C238.185 198.8 239.141 198.863 241.384 200.332C246.389 203.611 245.748 210.943 240.265 213.135C227.076 218.406 220.17 222.642 212.919 229.906C199.994 242.853 194.152 258.275 195.301 276.415C195.618 281.412 196.601 287.576 197.486 290.113L199.094 294.725L227.074 309.863C242.462 318.188 255.487 325 256.017 325C256.547 325 269.556 318.213 284.925 309.917L312.869 294.833L314.496 290.167C315.391 287.6 316.382 281.412 316.699 276.415C317.848 258.275 312.006 242.853 299.081 229.906C291.83 222.642 284.924 218.406 271.735 213.135C266.252 210.943 265.611 203.611 270.616 200.332C273.982 198.127 279.209 199.383 291 205.232C297.857 208.633 301.362 211.289 309.134 218.974C317.762 227.505 319.297 229.596 323.835 239C330.03 251.838 332.344 262.253 331.848 275.063C331.605 281.331 331.838 283.968 332.616 283.776C334.863 283.221 398 248.614 398 247.937C398 246.977 257.539 170.99 255.853 171.039C255.109 171.06 222.887 188.229 184.25 209.191ZM71.5 264.454C58.3 269.028 47.719 273.16 47.987 273.635C48.723 274.943 185.697 349 187.379 349C188.619 349 235.988 333.199 236.772 332.524C237.054 332.281 96.293 255.947 95.786 256.069C95.629 256.107 84.7 259.88 71.5 264.454ZM345.22 294.239L274.94 332.391L299.094 340.695C312.379 345.263 323.896 349 324.687 349C326.983 349 465.185 273.774 464.3 273.005C463.694 272.48 421.988 257.972 416.5 256.377C415.95 256.218 383.874 273.255 345.22 294.239ZM220.315 259.007C213.066 261.928 215.777 273 223.742 273C226.902 273 231 269.28 231 266.412C231 263.768 228.72 260.194 226.343 259.11C223.531 257.829 223.25 257.825 220.315 259.007ZM285.364 259.148C283.232 260.202 281 263.918 281 266.412C281 267.137 281.933 268.916 283.073 270.365C287.188 275.596 296 272.696 296 266.111C296 260.617 290.145 256.784 285.364 259.148ZM242.421 283.384C237.111 285.857 233 290.053 233 293C233 293.952 233.933 295.916 235.073 297.365C237.615 300.598 241.498 300.809 246.739 298C252.009 295.175 258.639 295.39 264.795 298.584C269.553 301.052 269.914 301.096 272.873 299.566C278.609 296.599 278.309 289.782 272.267 285.814C266.665 282.135 262.487 280.999 254.601 281.01C249.248 281.017 246.25 281.602 242.421 283.384ZM375 339.619C336.185 360.731 329.486 364 325.033 364C323.068 364 308.653 359.725 293 354.5C277.347 349.275 264.418 345 264.27 345C264.121 345 264 378.3 264 419C264 459.7 264.219 493 264.486 493C265.711 493 405.58 416.683 406.232 415.659C407.204 414.131 407.222 322.996 406.25 323.014C405.837 323.022 391.775 330.494 375 339.619ZM304 429.081C293.637 434.594 291 436.941 291 440.656C291 443.696 295.174 448 298.121 448C300.948 448 318.939 438.53 321.25 435.826C324.998 431.44 321.642 423.981 315.936 424.014C314.596 424.022 309.225 426.302 304 429.081Z" fill="#BFBFBF" fill-opacity="0.266667"/>
</svg>
